<?xml version="1.0" encoding="UTF-8" standalone="no"?>
<!DOCTYPE svg PUBLIC "-//W3C//DTD SVG 1.1//EN" "http://www.w3.org/Graphics/SVG/1.1/DTD/svg11.dtd">
<svg width="100%" height="100%" viewBox="0 0 400 400" version="1.1" xmlns="http://www.w3.org/2000/svg" xmlns:xlink="http://www.w3.org/1999/xlink" xml:space="preserve" xmlns:serif="http://www.serif.com/" style="fill-rule:evenodd;clip-rule:evenodd;stroke-linejoin:round;stroke-miterlimit:2;">
    <g id="svgg">
        <path id="path0" d="M230.2,81.075C228.948,81.419 227.958,81.924 227.195,82.605C226.837,82.924 226.49,83.211 226.422,83.243C226.189,83.352 225.455,84.511 225.307,85.004C225.225,85.277 225.01,85.725 224.829,86C224.526,86.46 224.492,90.862 224.4,141.2C224.289,201.673 224.396,196.83 223.082,201.045C222.817,201.894 222.6,202.679 222.6,202.789C222.6,203.119 221.668,205.048 221.116,205.859C220.832,206.276 220.6,206.7 220.6,206.801C220.6,207.363 217.584,210.223 216.065,211.101C215.754,211.28 215.14,211.644 214.7,211.909C213.658,212.536 213.053,212.799 212.637,212.804C212.452,212.807 211.94,212.972 211.5,213.171C211.06,213.371 210.295,213.598 209.8,213.677C209.305,213.755 208.528,213.946 208.072,214.1C205.733,214.892 194.592,214.912 193.039,214.126C192.743,213.976 192.145,213.789 191.71,213.71C191.276,213.631 190.736,213.437 190.51,213.279C190.285,213.12 189.765,212.9 189.356,212.789C187.96,212.412 182.8,208.246 182.8,207.496C182.8,207.407 182.665,207.191 182.501,207.017C181.758,206.229 181.249,205.453 181.115,204.9C181.035,204.57 180.851,204.165 180.708,204C180.565,203.835 180.381,203.475 180.3,203.2C180.219,202.925 180.041,202.565 179.905,202.4C179.768,202.235 179.561,201.65 179.444,201.1C179.327,200.55 179.095,199.56 178.927,198.9C178.759,198.24 178.504,197.205 178.361,196.6C178.149,195.705 178.114,185.36 178.177,141.186C178.238,98.757 178.201,86.7 178.01,86.086C177.615,84.816 177.254,84.133 176.699,83.6C176.413,83.325 175.97,82.898 175.716,82.65C175.462,82.403 175.156,82.2 175.037,82.2C174.918,82.2 174.748,82.083 174.66,81.94C173.77,80.493 135.569,80.475 134.74,81.921C134.652,82.074 134.458,82.2 134.309,82.2C133.908,82.2 132.302,84.065 131.766,85.154L131.3,86.1L131.1,140.9L83.006,141.002L82.9,85.9L82.4,85.029C81.317,83.142 79.907,81.943 78.059,81.338C76.55,80.845 43.453,80.82 41.558,81.311C40,81.715 38.228,83.098 37.346,84.6L36.7,85.7L36.7,248.5L37.15,249.131C37.398,249.478 37.6,249.84 37.6,249.936C37.6,250.295 38.985,251.569 40.074,252.211C41.249,252.905 43.564,252.997 59.8,252.997C77.596,252.997 78.238,252.961 79.982,251.86C80.645,251.442 81.19,251.001 81.193,250.881C81.197,250.761 81.378,250.501 81.595,250.305C81.812,250.108 82.048,249.757 82.119,249.524C82.189,249.291 82.394,248.933 82.574,248.729C82.872,248.39 82.905,245.523 82.953,215.079L83.006,181.8L106.981,181.8C125.987,181.8 130.974,181.852 131.036,182.05C131.08,182.188 131.145,196.88 131.182,214.7C131.255,250.584 131.168,248.386 132.591,250.258C134.57,252.863 135.226,252.997 145.9,252.993C149.86,252.992 153.247,252.993 153.426,252.995C153.605,252.998 153.863,253.27 154,253.6C154.137,253.93 154.321,254.2 154.409,254.2C154.497,254.2 154.68,254.538 154.816,254.95C154.952,255.363 155.21,255.925 155.39,256.2C155.874,256.942 156.121,257.375 156.815,258.7C157.161,259.36 157.6,260.125 157.789,260.4C157.979,260.675 158.333,261.32 158.577,261.834C158.821,262.347 159.151,262.876 159.31,263.008C159.47,263.141 159.6,263.418 159.6,263.624C159.6,263.831 159.678,264 159.773,264C159.869,264 160.139,264.428 160.374,264.95C160.61,265.473 161.016,266.26 161.278,266.7C161.54,267.14 162.052,268.085 162.417,268.8C163.067,270.072 163.767,271.199 164.034,271.402C164.108,271.458 164.233,271.764 164.313,272.081C164.393,272.398 164.625,272.825 164.829,273.029C165.033,273.233 165.2,273.563 165.2,273.761C165.2,273.96 165.425,274.427 165.7,274.8C165.975,275.173 166.2,275.586 166.2,275.717C166.2,275.849 166.323,276.005 166.474,276.062C166.625,276.12 166.807,276.4 166.878,276.684C166.95,276.969 167.456,277.96 168.004,278.887C168.552,279.815 169.094,280.782 169.21,281.037C169.326,281.292 169.64,281.86 169.909,282.3C170.507,283.279 171,284.316 171,284.594C171,284.707 171.089,284.8 171.197,284.8C171.306,284.8 171.529,285.093 171.693,285.45C171.858,285.808 172.077,286.235 172.181,286.4C172.285,286.565 172.714,287.319 173.135,288.076C173.556,288.833 174.051,289.688 174.235,289.976C174.42,290.264 174.577,290.619 174.585,290.763C174.593,290.908 174.825,291.322 175.1,291.682C175.375,292.043 175.6,292.475 175.6,292.642C175.6,292.809 175.761,293.161 175.958,293.423C176.155,293.685 176.424,294.125 176.557,294.4C176.689,294.675 176.883,295.035 176.988,295.2C177.478,295.971 179.045,298.807 180.212,301.034C180.384,301.362 180.654,301.709 180.812,301.807C181.06,301.96 181.114,305.835 181.2,329.443C181.299,356.649 181.304,356.906 181.709,357.6C182.801,359.468 183.303,359.985 184.715,360.692L186.13,361.4L202.148,361.4C220.805,361.4 219.754,361.532 221.9,358.913C223.224,357.297 223.199,357.87 223.2,329.075C223.2,301.402 223.174,302.134 224.19,301.506C224.289,301.445 224.43,301.117 224.505,300.777C224.58,300.437 224.812,299.988 225.02,299.78C225.229,299.571 225.4,299.271 225.4,299.113C225.4,298.841 226.233,297.334 227.036,296.152C227.242,295.85 227.465,295.325 227.533,294.985C227.601,294.644 227.775,294.32 227.919,294.265C228.063,294.21 228.282,293.858 228.406,293.482C228.53,293.107 228.7,292.8 228.784,292.8C228.868,292.8 229.046,292.435 229.18,291.989C229.313,291.544 229.547,291.131 229.699,291.073C229.851,291.014 230.035,290.695 230.108,290.363C230.181,290.031 230.412,289.588 230.62,289.38C230.829,289.171 231.002,288.843 231.004,288.65C231.007,288.457 231.185,288.075 231.4,287.8C231.615,287.525 231.793,287.223 231.796,287.129C231.798,287.035 232.069,286.559 232.398,286.072C232.727,285.585 233.054,284.942 233.126,284.643C233.198,284.344 233.424,283.939 233.628,283.742C233.833,283.545 234,283.212 234,283.002C234,282.792 234.122,282.548 234.272,282.46C234.421,282.372 234.651,281.97 234.782,281.566C234.913,281.162 235.151,280.724 235.31,280.592C235.47,280.459 235.601,280.25 235.601,280.126C235.603,279.893 235.805,279.481 236.595,278.1C236.847,277.66 237.316,276.785 237.637,276.156C237.957,275.526 238.299,274.963 238.395,274.903C238.491,274.844 238.63,274.52 238.703,274.184C238.777,273.848 238.955,273.528 239.099,273.473C239.242,273.418 239.461,272.97 239.585,272.478C239.709,271.986 239.943,271.533 240.105,271.47C240.267,271.408 240.4,271.201 240.4,271.01C240.4,270.818 240.572,270.506 240.782,270.316C240.992,270.126 241.217,269.759 241.282,269.502C241.346,269.244 241.85,268.253 242.4,267.3C242.95,266.348 243.4,265.455 243.4,265.315C243.4,265.176 243.575,264.904 243.789,264.71C244.002,264.517 244.236,264.092 244.308,263.766C244.379,263.44 244.564,263.124 244.719,263.065C244.873,263.006 245,262.838 245,262.693C245,262.439 246.866,258.71 247.198,258.3C247.287,258.19 247.645,257.538 247.993,256.85L248.626,255.6L278.163,255.595C307.727,255.589 317.181,255.409 318.9,254.82C319.23,254.707 320.736,254.519 322.247,254.403C323.759,254.287 325.227,254.104 325.511,253.996C325.795,253.888 326.674,253.704 327.464,253.588C328.254,253.472 329.229,253.251 329.63,253.098C330.032,252.945 330.842,252.757 331.43,252.681C333.065,252.471 337.74,250.903 339.44,249.995C339.846,249.778 340.352,249.6 340.563,249.6C340.774,249.6 341.161,249.442 341.423,249.248C341.685,249.055 342.53,248.586 343.3,248.206C344.07,247.826 345.15,247.193 345.7,246.797C346.25,246.402 347.028,245.927 347.428,245.74C347.829,245.554 348.208,245.266 348.272,245.101C348.335,244.935 348.525,244.8 348.694,244.8C348.862,244.8 349,244.712 349,244.605C349,244.498 349.275,244.268 349.611,244.094C349.946,243.921 350.384,243.626 350.583,243.439C350.781,243.253 351.288,242.83 351.708,242.5C353.939,240.749 359.16,235.137 360.745,232.787C361.101,232.26 361.484,231.772 361.598,231.701C361.84,231.552 363.2,229.463 363.2,229.241C363.2,229.157 363.378,228.937 363.595,228.751C363.812,228.565 364.049,228.163 364.123,227.857C364.197,227.55 364.379,227.165 364.527,227C364.922,226.559 366.969,222.45 367.235,221.563C367.36,221.143 367.532,220.8 367.616,220.8C367.7,220.8 367.829,220.507 367.904,220.15C367.978,219.793 368.202,219.14 368.401,218.7C368.599,218.26 368.876,217.36 369.015,216.7C369.153,216.04 369.334,215.41 369.415,215.3C369.496,215.19 369.628,214.65 369.707,214.1C369.787,213.55 369.972,212.785 370.119,212.4C371.822,207.923 371.325,189.413 369.391,185.3C369.288,185.08 369.064,184.27 368.895,183.5C368.725,182.73 368.464,181.83 368.315,181.5C367.507,179.716 367.227,179.052 367.093,178.6C366.902,177.957 364.619,173.635 364.398,173.499C364.306,173.442 364.17,173.12 364.097,172.784C364.023,172.448 363.836,172.124 363.681,172.065C363.527,172.006 363.4,171.837 363.4,171.69C363.4,171.543 363.243,171.305 363.05,171.161C362.858,171.018 362.565,170.634 362.4,170.309C362.235,169.985 361.76,169.355 361.345,168.909C360.93,168.464 360.3,167.72 359.945,167.255C359.59,166.79 359.143,166.357 358.95,166.291C358.757,166.226 358.6,166.075 358.6,165.955C358.6,165.693 356.902,164.079 355.45,162.961C354.873,162.516 354.4,162.083 354.4,161.999C354.4,161.915 354.22,161.8 354,161.742C353.294,161.557 353.561,161.074 355.425,159.167C356.429,158.14 357.395,157.075 357.572,156.8C357.749,156.525 358.052,156.182 358.247,156.039C358.441,155.895 358.6,155.689 358.6,155.58C358.6,155.472 358.94,154.914 359.356,154.341C359.771,153.769 360.222,153.075 360.357,152.8C360.493,152.525 360.795,151.985 361.03,151.6C361.707,150.491 362.357,149.148 362.506,148.55C362.582,148.248 362.713,148 362.798,148C362.883,148 363.06,147.572 363.191,147.05C363.323,146.528 363.543,145.965 363.682,145.8C363.82,145.635 364.045,144.872 364.18,144.104C364.316,143.337 364.509,142.61 364.609,142.489C364.71,142.368 364.886,141.601 365.002,140.785C365.118,139.968 365.296,138.985 365.399,138.6C366.159,135.751 366.369,127.702 365.799,123.264C365.469,120.696 364.78,117.144 364.48,116.47C364.326,116.123 364.196,115.583 364.191,115.27C364.186,114.956 364.059,114.385 363.909,114C363.758,113.615 363.489,112.895 363.311,112.4C362.645,110.55 360.003,105.166 359.65,104.94C359.513,104.852 359.4,104.664 359.4,104.521C359.4,104.379 359.228,104.106 359.018,103.916C358.808,103.726 358.576,103.33 358.502,103.037C358.428,102.743 358.244,102.368 358.093,102.202C357.197,101.218 357.029,101.016 356.873,100.739C356.345,99.805 351.238,94.452 349.965,93.5C349.671,93.28 348.398,92.313 347.136,91.35C345.875,90.388 344.775,89.6 344.692,89.6C344.609,89.6 344.163,89.29 343.701,88.911C343.239,88.533 342.599,88.16 342.28,88.082C341.961,88.005 341.475,87.797 341.2,87.621C340.133,86.936 337.124,85.582 335.447,85.031C334.795,84.817 334.09,84.549 333.881,84.436C333.348,84.147 330.175,83.198 329.745,83.199C329.55,83.2 328.878,83.02 328.252,82.8C327.626,82.58 326.883,82.4 326.601,82.4C326.318,82.4 325.595,82.26 324.994,82.088C323.604,81.692 319.684,81.26 315.2,81.008C309.699,80.7 231.34,80.761 230.2,81.075M314.8,88.218C317.055,88.325 319.215,88.452 319.6,88.498C320.666,88.627 324.596,89.378 325.288,89.584C325.624,89.685 326.62,89.926 327.5,90.121C328.38,90.315 329.414,90.638 329.797,90.837C330.18,91.037 330.642,91.2 330.823,91.2C331.003,91.2 331.266,91.339 331.408,91.509C331.549,91.679 331.774,91.776 331.909,91.724C332.179,91.62 333.623,92.056 334.4,92.476C334.675,92.624 335.148,92.805 335.45,92.877C335.753,92.949 336,93.096 336,93.204C336,93.312 336.079,93.4 336.176,93.4C336.428,93.4 337.569,93.938 338.5,94.495C338.94,94.759 339.818,95.252 340.45,95.59C341.082,95.929 341.6,96.294 341.6,96.403C341.6,96.511 341.68,96.6 341.777,96.6C342.059,96.6 344.2,98.039 344.2,98.229C344.2,98.323 344.326,98.4 344.481,98.4C344.947,98.4 349.306,102.91 350.933,105.075C351.77,106.189 352.51,107.145 352.578,107.2C352.751,107.342 353.133,107.984 353.528,108.8C353.714,109.185 353.97,109.635 354.096,109.8C354.298,110.065 354.697,110.929 355.988,113.9C356.179,114.34 356.535,115.375 356.778,116.2C357.021,117.025 357.346,118.105 357.5,118.6C358.997,123.418 359.354,137.463 358.022,139.075C357.919,139.199 357.746,139.75 357.636,140.3C357.029,143.335 354.418,149.452 353.281,150.498C353.161,150.609 352.429,151.465 351.655,152.4C349.776,154.67 348.708,155.8 348.442,155.8C348.321,155.8 348.104,155.957 347.96,156.15C347.624,156.597 346.702,157.289 345.775,157.791C345.376,158.006 344.999,158.313 344.938,158.473C344.877,158.632 344.557,158.822 344.227,158.894C343.898,158.966 343.513,159.164 343.372,159.334C343.231,159.503 342.933,159.723 342.708,159.822C339.304,161.325 339.059,161.956 341.445,163.079C345.656,165.06 347.025,165.782 347.26,166.15C347.348,166.288 347.512,166.4 347.625,166.4C347.906,166.4 350.72,168.489 351.7,169.425C354.856,172.44 355.621,173.299 357.027,175.403C357.614,176.282 358.163,177 358.247,177C358.331,177 358.4,177.14 358.4,177.311C358.4,177.481 358.625,177.952 358.9,178.357C359.175,178.762 359.4,179.177 359.4,179.281C359.4,179.384 359.526,179.611 359.679,179.784C359.833,179.958 360.098,180.505 360.268,181C360.438,181.495 360.893,182.665 361.278,183.6C362.084,185.557 362.264,186.289 363.609,193.1C364.126,195.717 364.138,205.699 363.627,208.4C363.017,211.628 361.217,217.625 360.595,218.5C360.517,218.61 360.299,219.171 360.111,219.748C359.923,220.324 359.686,220.847 359.583,220.91C359.481,220.974 359.06,221.709 358.648,222.545C357.617,224.638 357.525,224.8 357.362,224.8C357.283,224.8 357.061,225.138 356.868,225.55C356.085,227.221 351.346,233 349.127,234.987C348.812,235.269 348.092,235.927 347.527,236.448C346.962,236.97 346.442,237.397 346.372,237.398C346.302,237.399 345.897,237.721 345.472,238.114C345.047,238.506 344.412,238.955 344.061,239.112C343.71,239.268 343.35,239.51 343.261,239.648C343.172,239.787 342.83,240.035 342.5,240.2C342.17,240.365 341.855,240.554 341.8,240.621C341.639,240.818 338.49,242.4 338.259,242.4C338.144,242.4 337.942,242.529 337.811,242.687C337.68,242.845 337.317,243.03 337.006,243.099C336.694,243.167 336.096,243.398 335.677,243.612C335.258,243.825 334.75,244 334.548,244C334.346,244 333.808,244.18 333.353,244.4C332.897,244.62 332.314,244.8 332.055,244.8C331.797,244.8 331.387,244.929 331.143,245.086C330.464,245.525 324.73,246.669 320.512,247.207C314.177,248.016 312.83,248.053 283.3,248.228C249.913,248.427 252.381,248.415 248.5,248.393L245.5,248.375L244.85,249.121C244.493,249.531 244.2,249.987 244.2,250.133C244.2,250.28 244.128,250.4 244.04,250.4C243.952,250.4 243.774,250.694 243.644,251.054C243.514,251.414 242.911,252.549 242.304,253.576C241.697,254.603 241.2,255.572 241.2,255.728C241.2,255.885 241.07,256.062 240.912,256.123C240.754,256.184 240.568,256.488 240.5,256.8C240.431,257.112 240.201,257.568 239.988,257.814C239.774,258.06 239.6,258.405 239.599,258.581C239.599,258.756 239.27,259.44 238.867,260.1C238.464,260.76 237.833,261.885 237.464,262.6C237.095,263.315 236.531,264.305 236.212,264.8C235.893,265.295 235.624,265.835 235.614,266C235.605,266.165 235.419,266.57 235.2,266.9C234.981,267.23 234.802,267.621 234.801,267.768C234.801,267.916 234.44,268.55 234,269.177C233.56,269.804 233.199,270.403 233.197,270.509C233.195,270.727 232.509,272.068 231.025,274.76C230.461,275.784 230,276.709 230,276.817C230,276.924 229.87,277.062 229.712,277.123C229.554,277.184 229.365,277.518 229.293,277.867C229.22,278.215 229.014,278.725 228.835,279C228.221,279.943 227.807,280.702 227.13,282.122C226.757,282.904 226.35,283.607 226.225,283.684C226.101,283.761 225.816,284.246 225.593,284.762C225.369,285.278 225.098,285.835 224.989,286C224.881,286.165 224.655,286.615 224.488,287C224.033,288.046 223.379,289.24 222.966,289.777C222.765,290.039 222.6,290.386 222.6,290.548C222.6,290.71 222.348,291.215 222.041,291.671C221.733,292.127 221.208,293.04 220.875,293.7C220.542,294.36 220.072,295.215 219.831,295.6C219.589,295.985 219.114,296.885 218.773,297.6C218.433,298.315 217.997,299.125 217.804,299.4C217.612,299.675 217.262,300.446 217.027,301.113L216.6,302.327L216.6,354.392L216.05,354.546C215.498,354.7 189.583,354.745 188.55,354.593C188.248,354.549 187.979,354.51 187.953,354.506C187.927,354.503 187.86,342.44 187.803,327.7L187.7,300.9L187.068,299.9C186.72,299.35 186.068,298.18 185.619,297.3C185.171,296.42 184.583,295.34 184.313,294.9C184.043,294.46 183.501,293.47 183.109,292.7C182.717,291.93 182.215,291.03 181.995,290.7C181.774,290.37 181.446,289.762 181.267,289.35C181.087,288.937 180.87,288.6 180.786,288.6C180.701,288.6 180.573,288.331 180.5,288.001C180.428,287.672 180.261,287.334 180.13,287.251C179.999,287.168 179.579,286.47 179.197,285.7C178.816,284.93 178.261,283.937 177.966,283.492C177.671,283.048 177.368,282.441 177.293,282.142C177.218,281.844 177.081,281.6 176.989,281.6C176.819,281.6 176.487,281.058 175.886,279.8C175.702,279.415 175.474,278.965 175.379,278.8C175.284,278.635 175.066,278.188 174.895,277.807C174.725,277.426 174.46,276.976 174.308,276.807C174.156,276.638 173.969,276.251 173.893,275.947C173.817,275.644 173.652,275.329 173.526,275.247C173.323,275.117 172.853,274.308 171.811,272.3C171.64,271.97 171.445,271.655 171.378,271.6C171.148,271.412 170.6,270.22 170.6,269.91C170.6,269.739 170.508,269.6 170.395,269.6C170.282,269.6 170.101,269.397 169.993,269.15C169.884,268.903 169.302,267.8 168.698,266.7C168.095,265.6 167.369,264.228 167.086,263.65C166.802,263.072 166.489,262.6 166.389,262.6C166.289,262.6 166.148,262.362 166.075,262.071C166.002,261.78 165.775,261.375 165.571,261.171C165.367,260.967 165.2,260.634 165.2,260.431C165.2,260.228 165.02,259.899 164.8,259.7C164.58,259.501 164.397,259.239 164.394,259.119C164.385,258.81 163.581,257.213 163.076,256.499C162.842,256.17 162.474,255.54 162.257,255.1C161.667,253.903 161.115,252.913 160.976,252.8C160.908,252.745 160.675,252.34 160.458,251.9C159.824,250.616 159.311,249.709 159.154,249.591C159.073,249.53 158.89,249.17 158.747,248.79C158.426,247.935 157.828,246.896 157.3,246.274L156.9,245.804L147.8,245.745C142.795,245.713 138.589,245.618 138.454,245.534C138.262,245.414 138.208,237.829 138.206,210.341C138.203,178.69 138.173,175.278 137.888,175.068C137.454,174.749 76.797,174.681 76.202,174.999C75.802,175.213 75.8,175.359 75.797,210.157C75.795,229.376 75.722,245.213 75.634,245.352C75.457,245.63 45.503,245.764 44.252,245.492L43.604,245.351L43.601,167.091C43.598,96.105 43.627,88.801 43.913,88.515C44.236,88.193 74.662,88.006 75.484,88.321C75.77,88.431 75.8,91.241 75.8,118.097C75.8,145.437 75.826,147.772 76.131,148.026C76.596,148.412 137.644,148.531 137.958,148.146C138.087,147.988 138.2,141.986 138.274,131.4C138.546,92.141 138.615,88.443 139.083,88.318C140.544,87.925 170.593,88.209 170.975,88.619C171.369,89.042 171.438,115.083 171.1,136C170.767,156.651 170.758,192.731 171.086,194.467C171.269,195.439 171.4,196.384 171.376,196.567C171.313,197.057 171.577,198.796 171.837,199.6C171.961,199.985 172.219,200.975 172.41,201.8C172.812,203.541 173.418,205.023 174.401,206.675C174.785,207.321 175.235,208.078 175.4,208.358C175.565,208.638 175.835,209.018 176,209.203C176.165,209.388 176.48,209.794 176.7,210.106C176.92,210.418 177.557,211.264 178.115,211.987C178.673,212.709 179.186,213.454 179.255,213.642C179.325,213.83 179.726,214.235 180.148,214.542C181.264,215.354 182.957,216.787 183.819,217.65C186.562,220.394 193.863,222.224 200.919,221.934C203.802,221.815 204.589,221.755 207.8,221.403C209.759,221.188 213.403,220.297 214.825,219.684C215.444,219.418 216.04,219.2 216.151,219.2C216.261,219.2 216.458,219.071 216.589,218.913C216.72,218.755 217.114,218.563 217.464,218.487C218.849,218.186 225.4,213.094 225.4,212.319C225.4,212.246 225.677,211.915 226.016,211.584C226.908,210.712 228.6,208.649 228.6,208.433C228.6,208.332 228.735,208.137 228.9,208C229.065,207.863 229.2,207.614 229.2,207.446C229.2,207.277 229.561,206.515 230.001,205.75C230.507,204.874 230.953,203.722 231.209,202.63C231.433,201.679 231.722,200.54 231.852,200.1C232.03,199.497 232.115,185.726 232.194,144.1C232.252,113.74 232.377,88.781 232.47,88.636C232.564,88.491 232.834,88.294 233.07,88.198C233.67,87.955 309.687,87.973 314.8,88.218M264.748,115.189C264.334,115.271 263.929,115.404 263.848,115.485C263.519,115.814 263.567,149.673 263.898,150.464L264.205,151.2L285.053,151.196C310.01,151.191 312.288,151.039 316.53,149.09C316.877,148.93 317.282,148.8 317.43,148.8C317.579,148.8 318.285,148.44 319,148C319.715,147.56 320.391,147.2 320.502,147.2C320.613,147.2 320.816,147.02 320.954,146.8C321.091,146.58 321.296,146.4 321.409,146.4C321.669,146.4 323.971,144.088 324.498,143.297C325.075,142.43 325.367,141.94 325.511,141.6C325.58,141.435 325.805,140.94 326.01,140.5C326.215,140.06 326.486,139.295 326.612,138.8C326.738,138.305 326.945,137.836 327.071,137.757C327.384,137.562 327.394,128.182 327.081,127.781C326.961,127.626 326.744,127.05 326.6,126.5C326.456,125.95 326.275,125.41 326.198,125.3C326.121,125.19 325.961,124.812 325.843,124.459C324.983,121.902 321.282,118.442 318.4,117.5C318.345,117.482 317.895,117.288 317.4,117.068C316.204,116.538 314.343,116.034 312.666,115.787C311.915,115.676 310.805,115.49 310.2,115.375C308.913,115.129 265.937,114.953 264.748,115.189M311.371,122.966C312.62,123.197 313.745,123.466 313.871,123.565C313.997,123.664 314.365,123.808 314.688,123.886C315.011,123.963 315.52,124.201 315.819,124.413C316.117,124.626 316.469,124.8 316.6,124.8C317.342,124.8 319.054,127.032 319.746,128.9C320.714,131.518 320.202,136.939 318.851,138.364C318.713,138.51 318.6,138.715 318.6,138.821C318.6,139.069 317.446,140.2 317.193,140.2C317.087,140.2 317,140.335 317,140.5C317,140.665 316.916,140.8 316.814,140.8C316.712,140.8 316.472,140.956 316.282,141.147C315.929,141.5 315.77,141.571 313.3,142.487C310.074,143.684 310.375,143.667 290.05,143.789C279.792,143.85 271.309,143.87 271.2,143.833C270.964,143.755 270.915,122.752 271.15,122.517C271.553,122.113 309.021,122.531 311.371,122.966M263.96,177.844C263.525,178.607 263.711,220.319 264.154,221.11C264.328,221.421 309.5,221.464 310.9,221.155C311.23,221.082 312.163,220.926 312.973,220.809C313.784,220.691 314.521,220.549 314.612,220.493C314.703,220.437 315.265,220.3 315.862,220.19C316.459,220.08 317.4,219.771 317.955,219.503C318.509,219.236 319.197,218.958 319.483,218.886C319.77,218.814 320.053,218.676 320.114,218.578C320.174,218.48 320.398,218.4 320.612,218.4C320.825,218.4 321,218.327 321,218.237C321,218.147 321.36,217.871 321.8,217.624C322.24,217.377 322.6,217.09 322.6,216.987C322.6,216.884 322.743,216.8 322.918,216.8C323.277,216.8 327.4,212.754 327.4,212.402C327.4,212.276 327.625,211.878 327.9,211.518C328.175,211.157 328.4,210.765 328.4,210.645C328.4,210.526 328.518,210.31 328.661,210.164C328.805,210.019 329.248,209 329.646,207.9C331.743,202.1 331.936,194.479 330.09,190.3C329.944,189.97 329.605,189.202 329.335,188.593C329.065,187.984 328.7,187.366 328.522,187.219C328.345,187.071 328.2,186.866 328.2,186.762C328.2,186.192 324.756,182.54 323.989,182.297C323.775,182.229 323.6,182.087 323.6,181.982C323.6,181.876 323.398,181.701 323.15,181.592C322.582,181.343 320.933,180.38 320.8,180.22C320.57,179.943 316.712,178.713 314.3,178.147L311.7,177.537L287.96,177.462L264.221,177.387L263.96,177.844M310.2,184.993C313.305,185.346 314.764,185.625 315.513,186.007C315.937,186.223 316.446,186.4 316.642,186.4C316.839,186.4 317,186.482 317,186.581C317,186.681 317.406,186.901 317.903,187.07C319.402,187.581 322.311,190.202 322.531,191.24C322.594,191.537 322.816,191.933 323.023,192.121C323.23,192.308 323.401,192.696 323.401,192.981C323.402,193.266 323.547,193.77 323.724,194.1C324.284,195.147 324.342,199.699 323.822,201.827C323.59,202.777 323.399,203.677 323.399,203.827C323.398,203.977 323.281,204.325 323.138,204.6C322.995,204.875 322.759,205.526 322.614,206.046C322.469,206.567 322.226,207.095 322.075,207.221C321.924,207.346 321.8,207.57 321.8,207.717C321.8,207.865 321.621,208.082 321.402,208.199C321.184,208.316 320.952,208.621 320.888,208.877C320.786,209.284 319.115,210.649 317.9,211.318C317.68,211.439 317.078,211.777 316.563,212.068C316.047,212.36 315.147,212.695 314.563,212.813C313.978,212.931 313.175,213.15 312.777,213.301C311.269,213.873 305.738,214.021 288.2,213.96L270.9,213.9L270.837,207.8C270.802,204.445 270.835,197.898 270.91,193.25L271.047,184.8L289.874,184.811C300.228,184.817 309.375,184.898 310.2,184.993" style="fill:white;"/>
        <path id="path1" d="M0,200L0,400L400,400L400,0L0,0L0,200M315.3,80.996C320.079,81.258 323.137,81.591 324.696,82.018C325.464,82.228 326.344,82.4 326.652,82.4C326.961,82.4 327.536,82.535 327.931,82.7C328.326,82.865 329.242,83.095 329.967,83.211C330.692,83.326 331.379,83.5 331.495,83.596C331.611,83.692 332.154,83.88 332.703,84.014C333.251,84.148 333.8,84.336 333.923,84.431C334.045,84.526 334.705,84.787 335.389,85.012C336.73,85.452 338.463,86.188 339.627,86.811C340.027,87.025 340.486,87.2 340.646,87.2C340.807,87.2 341.093,87.371 341.282,87.58C341.471,87.789 341.923,88.016 342.286,88.084C342.648,88.152 343.106,88.386 343.304,88.604C343.501,88.822 343.783,89 343.931,89C344.079,89 344.2,89.093 344.2,89.206C344.2,89.32 344.358,89.469 344.55,89.538C344.963,89.686 346.458,90.734 348,91.957C348.605,92.436 349.359,93.025 349.676,93.264C351.105,94.347 356.324,99.767 356.873,100.739C356.967,100.907 357.192,101.209 357.373,101.408C358.09,102.204 358.314,102.516 358.655,103.194C359.181,104.24 359.543,104.839 359.732,104.977C360.067,105.222 363.2,111.737 363.2,112.188C363.2,112.313 363.373,112.755 363.584,113.169C363.795,113.583 364.071,114.49 364.197,115.185C364.323,115.879 364.507,116.594 364.606,116.774C364.8,117.125 365.408,120.378 365.826,123.3C366.2,125.911 366.155,133.959 365.752,136.5C365.163,140.22 364.764,142.299 364.6,142.5C364.511,142.61 364.332,143.285 364.203,144C364.073,144.715 363.805,145.615 363.606,146C363.406,146.385 363.182,146.993 363.106,147.35C363.03,147.708 362.895,148 362.806,148C362.716,148 362.582,148.248 362.506,148.55C362.356,149.152 361.701,150.503 361.028,151.6C360.792,151.985 360.453,152.615 360.277,153C360.1,153.385 359.897,153.745 359.826,153.8C359.537,154.025 358.6,155.388 358.6,155.585C358.6,155.701 358.42,155.909 358.2,156.046C357.98,156.184 357.8,156.397 357.8,156.52C357.8,156.643 356.855,157.712 355.7,158.895C353.567,161.08 353.284,161.555 354,161.742C354.22,161.8 354.4,161.918 354.4,162.006C354.4,162.094 354.746,162.421 355.169,162.733C356.488,163.706 358.6,165.674 358.6,165.929C358.6,166.063 358.757,166.226 358.95,166.291C359.143,166.357 359.59,166.79 359.945,167.255C360.3,167.72 360.93,168.464 361.345,168.909C361.76,169.355 362.235,169.985 362.4,170.309C362.565,170.634 362.858,171.018 363.05,171.161C363.243,171.305 363.4,171.553 363.4,171.711C363.4,171.87 363.479,172 363.575,172C363.671,172 363.966,172.428 364.232,172.95C364.497,173.473 365.219,174.845 365.836,176C366.453,177.155 367.072,178.483 367.211,178.95C367.35,179.418 367.532,179.8 367.616,179.8C367.7,179.8 367.829,180.093 367.904,180.45C367.978,180.808 368.152,181.28 368.29,181.5C368.427,181.72 368.699,182.615 368.892,183.488C369.086,184.362 369.321,185.217 369.415,185.388C370.737,187.797 371.962,206.078 370.915,207.776C370.873,207.844 370.733,208.782 370.605,209.861C370.476,210.939 370.253,212.109 370.11,212.461C369.967,212.812 369.785,213.55 369.706,214.1C369.627,214.65 369.494,215.19 369.411,215.3C369.328,215.41 369.145,216.085 369.004,216.8C368.863,217.515 368.628,218.294 368.482,218.531C368.335,218.769 368.111,219.376 367.984,219.881C367.857,220.387 367.68,220.8 367.592,220.8C367.504,220.8 367.372,221.073 367.298,221.408C367.143,222.116 364.943,226.559 364.529,227C364.374,227.165 364.185,227.593 364.108,227.952C364.031,228.31 363.795,228.696 363.584,228.809C363.373,228.922 363.2,229.1 363.2,229.204C363.2,229.642 358.798,235.583 358.016,236.2C357.947,236.255 357.397,236.885 356.795,237.6C356.193,238.315 355.634,238.929 355.554,238.965C355.474,239.001 354.747,239.676 353.94,240.465C353.132,241.254 352.128,242.17 351.708,242.5C351.288,242.83 350.781,243.253 350.583,243.439C350.384,243.626 349.946,243.921 349.611,244.094C349.275,244.268 349,244.498 349,244.605C349,244.712 348.868,244.8 348.707,244.8C348.546,244.8 348.318,244.98 348.2,245.2C348.082,245.42 347.887,245.6 347.765,245.6C347.644,245.6 346.801,246.095 345.891,246.7C344.982,247.305 344.152,247.8 344.046,247.8C343.94,247.8 343.639,247.968 343.377,248.172C343.115,248.377 342.675,248.615 342.4,248.7C342.125,248.785 341.685,249.023 341.423,249.228C341.161,249.432 340.774,249.6 340.563,249.6C340.352,249.6 339.846,249.776 339.44,249.992C337.153,251.204 332.427,252.647 328.2,253.423C327.595,253.534 326.579,253.756 325.942,253.916C325.305,254.075 323.595,254.3 322.142,254.415C320.689,254.53 319.23,254.715 318.9,254.828C317.181,255.413 307.877,255.589 278.263,255.594L248.626,255.6L247.993,256.85C247.645,257.538 247.287,258.19 247.198,258.3C246.884,258.688 245,262.469 245,262.712C245,262.847 244.877,263.005 244.726,263.062C244.575,263.12 244.389,263.415 244.313,263.718C244.237,264.021 244.001,264.49 243.788,264.761C243.574,265.032 243.4,265.325 243.4,265.411C243.4,265.498 242.95,266.348 242.4,267.3C241.85,268.253 241.346,269.244 241.282,269.502C241.217,269.759 240.992,270.126 240.782,270.316C240.572,270.506 240.4,270.783 240.4,270.931C240.4,271.079 240.22,271.38 240,271.6C239.78,271.82 239.6,272.226 239.6,272.502C239.6,272.778 239.42,273.158 239.2,273.346C238.98,273.535 238.8,273.837 238.8,274.017C238.8,274.198 238.637,274.561 238.437,274.823C238.238,275.085 237.841,275.755 237.555,276.312C237.27,276.868 236.857,277.643 236.637,278.034C235.956,279.247 235.841,279.48 235.592,280.15C235.46,280.507 235.276,280.8 235.184,280.8C235.092,280.8 234.908,281.16 234.776,281.6C234.645,282.04 234.468,282.4 234.384,282.4C234.3,282.4 234.13,282.707 234.006,283.082C233.882,283.458 233.663,283.81 233.519,283.865C233.375,283.92 233.201,284.244 233.133,284.585C233.065,284.925 232.842,285.45 232.636,285.752C231.833,286.934 231,288.441 231,288.713C231,288.871 230.829,289.171 230.62,289.38C230.412,289.588 230.178,290.045 230.102,290.393C230.025,290.742 229.837,291.075 229.683,291.134C229.529,291.193 229.299,291.592 229.17,292.021C229.042,292.449 228.868,292.8 228.784,292.8C228.7,292.8 228.53,293.107 228.406,293.482C228.282,293.858 228.063,294.21 227.919,294.265C227.775,294.32 227.598,294.66 227.526,295.02C227.454,295.379 227.27,295.815 227.116,295.987C226.963,296.159 226.431,297.092 225.934,298.061C225.437,299.029 224.941,299.93 224.831,300.062C224.722,300.194 224.569,300.572 224.492,300.901C224.415,301.231 224.249,301.59 224.124,301.7C223.282,302.436 223.306,301.741 223.189,329.7C223.103,350.359 223.022,356.512 222.823,357.249C222.518,358.384 220.696,360.393 219.6,360.802C219.215,360.946 218.815,361.14 218.71,361.232C218.606,361.324 211.212,361.4 202.281,361.4L186.041,361.4L184.671,360.682C183.415,360.024 182,358.609 182,358.011C182,357.91 181.843,357.671 181.65,357.479C181.321,357.15 181.294,355.478 181.2,329.685C181.109,304.702 181.071,302.209 180.774,301.871C180.595,301.667 180.066,300.78 179.598,299.9C178.703,298.216 177.31,295.707 176.988,295.2C176.883,295.035 176.689,294.675 176.557,294.4C176.424,294.125 176.155,293.685 175.958,293.423C175.761,293.161 175.6,292.809 175.6,292.642C175.6,292.475 175.375,292.043 175.1,291.682C174.825,291.322 174.593,290.908 174.585,290.763C174.577,290.619 174.42,290.264 174.235,289.976C174.051,289.688 173.556,288.833 173.135,288.076C172.714,287.319 172.285,286.565 172.181,286.4C172.077,286.235 171.858,285.808 171.693,285.45C171.529,285.093 171.32,284.8 171.229,284.8C171.138,284.8 170.957,284.444 170.826,284.008C170.696,283.573 170.5,283.162 170.391,283.095C170.283,283.028 170.065,282.664 169.907,282.286C169.749,281.909 169.526,281.6 169.41,281.6C169.295,281.6 169.2,281.458 169.2,281.284C169.2,281.11 168.87,280.412 168.467,279.734C167.441,278.008 166.802,276.745 166.801,276.444C166.8,276.303 166.665,276.136 166.5,276.072C166.335,276.009 166.2,275.849 166.2,275.717C166.2,275.586 165.975,275.173 165.7,274.8C165.425,274.427 165.2,273.96 165.2,273.761C165.2,273.563 165.033,273.233 164.829,273.029C164.625,272.825 164.393,272.398 164.313,272.081C164.233,271.764 164.106,271.458 164.03,271.402C163.792,271.227 163.131,270.152 162.491,268.9C162.154,268.24 161.679,267.385 161.435,267C161.191,266.615 160.769,265.833 160.496,265.262C160.223,264.69 159.909,264.168 159.8,264.1C159.69,264.032 159.6,263.813 159.6,263.613C159.6,263.413 159.47,263.141 159.31,263.008C159.151,262.876 158.818,262.35 158.571,261.84C158.324,261.33 157.775,260.341 157.351,259.644C156.928,258.946 156.491,258.179 156.38,257.938C156.27,257.697 155.961,257.14 155.694,256.7C155.427,256.26 155.107,255.675 154.983,255.4C154.859,255.125 154.676,254.765 154.577,254.6C154.478,254.435 154.246,254.007 154.062,253.65L153.726,253L146.113,252.998C135.105,252.996 134.58,252.887 132.527,250.181C131.151,248.368 131.234,250.537 131.169,214.7C131.137,196.88 131.076,182.188 131.034,182.05C130.973,181.852 125.988,181.8 106.981,181.8L83.006,181.8L82.953,215.079C82.905,245.523 82.872,248.39 82.574,248.729C82.394,248.933 82.189,249.291 82.119,249.524C82.048,249.757 81.812,250.108 81.595,250.305C81.378,250.501 81.197,250.761 81.193,250.881C81.176,251.445 78.803,252.608 77.247,252.815C74.816,253.139 41.935,252.961 40.9,252.619C39.743,252.236 37.632,250.513 37.607,249.931C37.603,249.838 37.397,249.478 37.15,249.131L36.7,248.5L36.7,85.7L37.286,84.7C37.813,83.8 39.077,82.4 39.362,82.4C39.424,82.4 39.661,82.224 39.89,82.01C40.938,81.025 41.438,81 59.906,81C75.409,81 77.226,81.033 78.1,81.331C79.911,81.948 81.335,83.173 82.4,85.029L82.9,85.9L83.006,141.002L131.1,140.9L131.3,86.1L131.766,85.154C132.302,84.065 133.908,82.2 134.309,82.2C134.458,82.2 134.652,82.079 134.74,81.931C135.606,80.476 173.782,80.48 174.66,81.935C174.748,82.081 174.953,82.2 175.116,82.2C175.279,82.2 175.463,82.331 175.524,82.491C175.586,82.651 175.92,82.949 176.268,83.155C176.908,83.533 177.569,84.644 178.015,86.093C178.205,86.711 178.242,98.801 178.18,140.993C178.096,197.924 178.069,195.842 178.936,199C179.103,199.605 179.333,200.55 179.448,201.1C179.563,201.65 179.768,202.235 179.905,202.4C180.041,202.565 180.219,202.925 180.3,203.2C180.381,203.475 180.561,203.835 180.7,204C180.839,204.165 181.017,204.525 181.096,204.8C181.228,205.259 181.947,206.446 182.546,207.193C183.083,207.864 186.145,211 186.263,211C186.405,211 188.247,212.232 188.4,212.429C188.455,212.5 188.905,212.666 189.4,212.798C189.895,212.93 190.435,213.156 190.6,213.302C190.765,213.447 191.26,213.631 191.7,213.71C192.14,213.789 192.736,213.973 193.024,214.119C194.663,214.947 207.221,214.877 208.267,214.033C208.395,213.929 208.995,213.781 209.6,213.703C210.205,213.626 210.884,213.446 211.108,213.304C211.332,213.162 212.023,212.941 212.643,212.812C213.262,212.683 213.877,212.448 214.009,212.289C214.141,212.13 214.346,212 214.464,212C214.86,212 218.576,209.367 218.919,208.843C219.106,208.558 219.51,208.113 219.818,207.854C220.127,207.595 220.437,207.197 220.509,206.971C220.581,206.744 220.863,206.231 221.136,205.829C221.837,204.799 222.499,203.282 222.798,202.021C222.939,201.428 223.176,200.708 223.326,200.421C223.475,200.134 223.601,199.585 223.606,199.2C223.61,198.815 223.765,197.96 223.95,197.3C224.26,196.194 224.294,191.798 224.393,141.281C224.47,101.577 224.561,86.384 224.722,86.181C224.844,86.026 225.099,85.485 225.288,84.978C225.876,83.407 227.587,81.953 229.707,81.224C231.005,80.777 307.605,80.574 315.3,80.996M271.133,122.533C271.06,122.607 271,127.423 271,133.237L271,143.808L289.85,143.744C306.131,143.688 308.904,143.636 310.2,143.362C311.759,143.032 314.153,142.278 314.5,142.008C314.61,141.922 315.038,141.743 315.45,141.611C315.863,141.478 316.2,141.292 316.2,141.198C316.2,141.104 316.38,140.97 316.6,140.9C316.82,140.83 317,140.644 317,140.487C317,140.329 317.087,140.2 317.193,140.2C319.249,140.2 321.058,132.674 319.838,129.2C319.099,127.097 317.392,124.8 316.568,124.8C316.455,124.8 316.117,124.626 315.819,124.413C315.52,124.201 315.011,123.963 314.688,123.886C314.365,123.808 313.989,123.658 313.854,123.551C313.468,123.247 310.365,122.799 307.3,122.604C304.061,122.398 271.333,122.334 271.133,122.533M270.91,193.65C270.835,198.518 270.802,205.065 270.836,208.2L270.9,213.9L287.9,213.961C306.267,214.026 311.125,213.877 313.086,213.188C313.693,212.975 314.395,212.799 314.645,212.797C315.199,212.794 316.888,211.953 318.479,210.889C319.127,210.455 319.861,209.969 320.111,209.809C320.361,209.648 320.708,209.218 320.882,208.853C321.057,208.487 321.335,208.136 321.5,208.072C321.665,208.009 321.8,207.843 321.8,207.703C321.8,207.563 321.925,207.345 322.078,207.218C322.231,207.092 322.462,206.564 322.593,206.047C322.723,205.529 322.911,205.007 323.011,204.887C323.181,204.682 323.51,203.351 324.023,200.8C324.328,199.284 324.14,195.118 323.723,194.156C323.545,193.747 323.4,193.199 323.4,192.937C323.4,192.676 323.23,192.308 323.023,192.121C322.816,191.933 322.597,191.535 322.537,191.236C322.444,190.772 321.351,189.613 319.174,187.672C318.995,187.512 318.526,187.292 318.131,187.183C317.736,187.074 317.293,186.864 317.145,186.717C316.998,186.569 316.567,186.383 316.189,186.302C315.81,186.221 315.365,186.04 315.2,185.9C314.915,185.656 313.176,185.346 310.1,184.988C309.33,184.898 300.228,184.819 289.874,184.812L271.047,184.8L270.91,193.65" style="fill:rgb(4,4,4);"/>
        <path id="path2" d="M224.47,89.6C224.47,90.535 224.504,90.918 224.546,90.45C224.589,89.983 224.589,89.218 224.546,88.75C224.504,88.283 224.47,88.665 224.47,89.6M233.07,88.198C232.834,88.294 232.564,88.491 232.47,88.636C232.377,88.781 232.252,113.74 232.194,144.1C232.115,185.726 232.03,199.497 231.852,200.1C231.722,200.54 231.433,201.679 231.209,202.63C230.953,203.722 230.507,204.874 230.001,205.75C229.561,206.515 229.2,207.277 229.2,207.446C229.2,207.614 229.065,207.863 228.9,208C228.735,208.137 228.6,208.332 228.6,208.433C228.6,208.649 226.908,210.712 226.016,211.584C225.677,211.915 225.4,212.246 225.4,212.319C225.4,213.094 218.849,218.186 217.464,218.487C217.114,218.563 216.72,218.755 216.589,218.913C216.458,219.071 216.261,219.2 216.151,219.2C216.04,219.2 215.444,219.418 214.825,219.684C211.958,220.919 207.307,221.671 200.919,221.934C193.863,222.224 186.562,220.394 183.819,217.65C182.957,216.787 181.264,215.354 180.148,214.542C179.726,214.235 179.325,213.83 179.255,213.642C179.186,213.454 178.673,212.709 178.115,211.987C177.557,211.264 176.92,210.418 176.7,210.106C176.48,209.794 176.165,209.388 176,209.203C175.835,209.018 175.565,208.638 175.4,208.358C175.235,208.078 174.785,207.321 174.401,206.675C173.418,205.023 172.812,203.541 172.41,201.8C172.219,200.975 171.961,199.985 171.837,199.6C171.577,198.796 171.313,197.057 171.376,196.567C171.4,196.384 171.269,195.439 171.086,194.467C170.758,192.731 170.767,156.651 171.1,136C171.438,115.083 171.369,89.042 170.975,88.619C170.593,88.209 140.544,87.925 139.083,88.318C138.615,88.443 138.546,92.141 138.274,131.4C138.2,141.986 138.087,147.988 137.958,148.146C137.644,148.531 76.596,148.412 76.131,148.026C75.826,147.772 75.8,145.437 75.8,118.097C75.8,91.241 75.77,88.431 75.484,88.321C74.662,88.006 43.913,88.515 43.913,88.515C43.913,88.515 43.598,96.105 43.601,167.091L43.604,245.351L44.252,245.492C45.503,245.764 75.457,245.63 75.634,245.352C75.722,245.213 75.795,229.376 75.797,210.157C75.8,175.359 75.802,175.213 76.202,174.999C76.797,174.681 137.454,174.749 137.888,175.068C138.173,175.278 138.203,178.69 138.206,210.341C138.208,237.829 138.262,245.414 138.454,245.534C138.589,245.618 142.795,245.713 147.8,245.745L156.9,245.804L157.3,246.274C157.828,246.896 158.426,247.935 158.747,248.79C158.89,249.17 159.073,249.53 159.154,249.591C159.311,249.709 159.824,250.616 160.458,251.9C160.675,252.34 160.908,252.745 160.976,252.8C161.115,252.913 161.667,253.903 162.257,255.1C162.474,255.54 162.842,256.17 163.076,256.499C163.581,257.213 164.385,258.81 164.394,259.119C164.397,259.239 164.58,259.501 164.8,259.7C165.02,259.899 165.2,260.228 165.2,260.431C165.2,260.634 165.367,260.967 165.571,261.171C165.775,261.375 166.002,261.78 166.075,262.071C166.148,262.362 166.289,262.6 166.389,262.6C166.489,262.6 166.802,263.072 167.086,263.65C167.369,264.228 168.095,265.6 168.698,266.7C169.302,267.8 169.884,268.903 169.993,269.15C170.101,269.397 170.282,269.6 170.395,269.6C170.508,269.6 170.6,269.739 170.6,269.91C170.6,270.22 171.148,271.412 171.378,271.6C171.445,271.655 171.64,271.97 171.811,272.3C172.853,274.308 173.323,275.117 173.526,275.247C173.652,275.329 173.817,275.644 173.893,275.947C173.969,276.251 174.156,276.638 174.308,276.807C174.46,276.976 174.725,277.426 174.895,277.807C175.066,278.188 175.284,278.635 175.379,278.8C175.474,278.965 175.702,279.415 175.886,279.8C176.487,281.058 176.819,281.6 176.989,281.6C177.081,281.6 177.218,281.844 177.293,282.142C177.368,282.441 177.671,283.048 177.966,283.492C178.261,283.937 178.816,284.93 179.197,285.7C179.579,286.47 179.999,287.168 180.13,287.251C180.261,287.334 180.428,287.672 180.5,288.001C180.573,288.331 180.701,288.6 180.786,288.6C180.87,288.6 181.087,288.937 181.267,289.35C181.446,289.762 181.774,290.37 181.995,290.7C182.215,291.03 182.717,291.93 183.109,292.7C183.501,293.47 184.043,294.46 184.313,294.9C184.583,295.34 185.171,296.42 185.619,297.3C186.068,298.18 186.72,299.35 187.068,299.9L187.7,300.9L187.803,327.7C187.86,342.44 187.927,354.503 187.953,354.506C187.979,354.51 188.248,354.549 188.55,354.593C189.583,354.745 215.498,354.7 216.05,354.546L216.6,354.392L216.6,302.327L217.027,301.113C217.262,300.446 217.612,299.675 217.804,299.4C217.997,299.125 218.433,298.315 218.773,297.6C219.114,296.885 219.589,295.985 219.831,295.6C220.072,295.215 220.542,294.36 220.875,293.7C221.208,293.04 221.733,292.127 222.041,291.671C222.348,291.215 222.6,290.71 222.6,290.548C222.6,290.386 222.765,290.039 222.966,289.777C223.379,289.24 224.033,288.046 224.488,287C224.655,286.615 224.881,286.165 224.989,286C225.098,285.835 225.369,285.278 225.593,284.762C225.816,284.246 226.101,283.761 226.225,283.684C226.35,283.607 226.757,282.904 227.13,282.122C227.807,280.702 228.221,279.943 228.835,279C229.014,278.725 229.22,278.215 229.293,277.867C229.365,277.518 229.554,277.184 229.712,277.123C229.87,277.062 230,276.924 230,276.817C230,276.709 230.461,275.784 231.025,274.76C232.509,272.068 233.195,270.727 233.197,270.509C233.199,270.403 233.56,269.804 234,269.177C234.44,268.55 234.801,267.916 234.801,267.768C234.802,267.621 234.981,267.23 235.2,266.9C235.419,266.57 235.605,266.165 235.614,266C235.624,265.835 235.893,265.295 236.212,264.8C236.531,264.305 237.095,263.315 237.464,262.6C237.833,261.885 238.464,260.76 238.867,260.1C239.27,259.44 239.599,258.756 239.599,258.581C239.6,258.405 239.774,258.06 239.988,257.814C240.201,257.568 240.431,257.112 240.5,256.8C240.568,256.488 240.754,256.184 240.912,256.123C241.07,256.062 241.2,255.885 241.2,255.728C241.2,255.572 241.697,254.603 242.304,253.576C242.911,252.549 243.514,251.414 243.644,251.054C243.774,250.694 243.952,250.4 244.04,250.4C244.128,250.4 244.2,250.28 244.2,250.133C244.2,249.987 244.493,249.531 244.85,249.121L245.5,248.375L248.5,248.393C252.381,248.415 249.913,248.427 283.3,248.228C312.83,248.053 314.177,248.016 320.512,247.207C324.73,246.669 330.464,245.525 331.143,245.086C331.387,244.929 331.797,244.8 332.055,244.8C332.314,244.8 332.897,244.62 333.353,244.4C333.808,244.18 334.346,244 334.548,244C334.75,244 335.258,243.825 335.677,243.612C336.096,243.398 336.694,243.167 337.006,243.099C337.317,243.03 337.68,242.845 337.811,242.687C337.942,242.529 338.144,242.4 338.259,242.4C338.49,242.4 341.639,240.818 341.8,240.621C341.855,240.554 342.17,240.365 342.5,240.2C342.83,240.035 343.172,239.787 343.261,239.648C343.35,239.51 343.71,239.268 344.061,239.112C344.412,238.955 345.047,238.506 345.472,238.114C345.897,237.721 346.302,237.399 346.372,237.398C346.442,237.397 346.962,236.97 347.527,236.448C348.092,235.927 348.812,235.269 349.127,234.987C351.346,233 356.085,227.221 356.868,225.55C357.061,225.138 357.283,224.8 357.362,224.8C357.525,224.8 357.617,224.638 358.648,222.545C359.06,221.709 359.481,220.974 359.583,220.91C359.686,220.847 359.923,220.324 360.111,219.748C360.299,219.171 360.517,218.61 360.595,218.5C361.217,217.625 363.017,211.628 363.627,208.4C364.138,205.699 364.126,195.717 363.609,193.1C362.264,186.289 362.084,185.557 361.278,183.6C360.893,182.665 360.438,181.495 360.268,181C360.098,180.505 359.833,179.958 359.679,179.784C359.526,179.611 359.4,179.384 359.4,179.281C359.4,179.177 359.175,178.762 358.9,178.357C358.625,177.952 358.4,177.481 358.4,177.311C358.4,177.14 358.331,177 358.247,177C358.163,177 357.614,176.282 357.027,175.403C355.621,173.299 354.856,172.44 351.7,169.425C350.72,168.489 347.906,166.4 347.625,166.4C347.512,166.4 347.348,166.288 347.26,166.15C347.025,165.782 345.656,165.06 341.445,163.079C339.059,161.956 339.304,161.325 342.708,159.822C342.933,159.723 343.231,159.503 343.372,159.334C343.513,159.164 343.898,158.966 344.227,158.894C344.557,158.822 344.877,158.632 344.938,158.473C344.999,158.313 345.376,158.006 345.775,157.791C346.702,157.289 347.624,156.597 347.96,156.15C348.104,155.957 348.321,155.8 348.442,155.8C348.708,155.8 349.776,154.67 351.655,152.4C352.429,151.465 353.161,150.609 353.281,150.498C354.418,149.452 357.029,143.335 357.636,140.3C357.746,139.75 357.919,139.199 358.022,139.075C359.354,137.463 358.997,123.418 357.5,118.6C357.346,118.105 357.021,117.025 356.778,116.2C356.535,115.375 356.179,114.34 355.988,113.9C354.697,110.929 354.298,110.065 354.096,109.8C353.97,109.635 353.714,109.185 353.528,108.8C353.133,107.984 352.751,107.342 352.578,107.2C352.51,107.145 351.77,106.189 350.933,105.075C349.306,102.91 344.947,98.4 344.481,98.4C344.326,98.4 344.2,98.323 344.2,98.229C344.2,98.039 342.059,96.6 341.777,96.6C341.68,96.6 341.6,96.511 341.6,96.403C341.6,96.294 341.082,95.929 340.45,95.59C339.818,95.252 338.94,94.759 338.5,94.495C337.569,93.938 336.428,93.4 336.176,93.4C336.079,93.4 336,93.312 336,93.204C336,93.096 335.753,92.949 335.45,92.877C335.148,92.805 334.675,92.624 334.4,92.476C333.623,92.056 332.179,91.62 331.909,91.724C331.774,91.776 331.549,91.679 331.408,91.509C331.266,91.339 331.003,91.2 330.823,91.2C330.642,91.2 330.18,91.037 329.797,90.837C329.414,90.638 328.38,90.315 327.5,90.121C326.62,89.926 325.624,89.685 325.288,89.584C324.596,89.378 320.666,88.627 319.6,88.498C315.74,88.031 234.179,87.748 233.07,88.198M310.2,115.375C310.805,115.49 311.915,115.676 312.666,115.787C314.343,116.034 316.204,116.538 317.4,117.068C317.895,117.288 318.345,117.482 318.4,117.5C321.282,118.442 324.983,121.902 325.843,124.459C325.961,124.812 326.121,125.19 326.198,125.3C326.275,125.41 326.456,125.95 326.6,126.5C326.744,127.05 326.961,127.626 327.081,127.781C327.394,128.182 327.384,137.562 327.071,137.757C326.945,137.836 326.738,138.305 326.612,138.8C326.486,139.295 326.215,140.06 326.01,140.5C325.805,140.94 325.58,141.435 325.511,141.6C325.367,141.94 325.075,142.43 324.498,143.297C323.971,144.088 321.669,146.4 321.409,146.4C321.296,146.4 321.091,146.58 320.954,146.8C320.816,147.02 320.613,147.2 320.502,147.2C320.391,147.2 319.715,147.56 319,148C318.285,148.44 317.579,148.8 317.43,148.8C317.282,148.8 316.877,148.93 316.53,149.09C312.288,151.039 310.01,151.191 285.053,151.196L264.205,151.2L263.898,150.464C263.567,149.673 263.519,115.814 263.848,115.485C263.929,115.404 264.334,115.271 264.748,115.189C265.937,114.953 308.913,115.129 310.2,115.375M178.077,153.2C178.077,154.575 178.109,155.138 178.148,154.45C178.187,153.763 178.187,152.638 178.148,151.95C178.109,151.263 178.077,151.825 178.077,153.2M314.3,178.147C316.712,178.713 320.57,179.943 320.8,180.22C320.933,180.38 322.582,181.343 323.15,181.592C323.398,181.701 323.6,181.876 323.6,181.982C323.6,182.087 323.775,182.229 323.989,182.297C324.756,182.54 328.2,186.192 328.2,186.762C328.2,186.866 328.345,187.071 328.522,187.219C328.7,187.366 329.065,187.984 329.335,188.593C329.605,189.202 329.944,189.97 330.09,190.3C331.936,194.479 331.743,202.1 329.646,207.9C329.248,209 328.805,210.019 328.661,210.164C328.518,210.31 328.4,210.526 328.4,210.645C328.4,210.765 328.175,211.157 327.9,211.518C327.625,211.878 327.4,212.276 327.4,212.402C327.4,212.754 323.277,216.8 322.918,216.8C322.743,216.8 322.6,216.884 322.6,216.987C322.6,217.09 322.24,217.377 321.8,217.624C321.36,217.871 321,218.147 321,218.237C321,218.327 320.825,218.4 320.612,218.4C320.398,218.4 320.174,218.48 320.114,218.578C320.053,218.676 319.77,218.814 319.483,218.886C319.197,218.958 318.509,219.236 317.955,219.503C317.4,219.771 316.459,220.08 315.862,220.19C315.265,220.3 314.703,220.437 314.612,220.493C314.521,220.549 313.784,220.691 312.973,220.809C312.163,220.926 311.23,221.082 310.9,221.155C309.5,221.464 264.328,221.421 264.154,221.11C263.711,220.319 263.525,178.607 263.96,177.844L264.221,177.387L287.96,177.462L311.7,177.537L314.3,178.147" style="fill:rgb(247,132,16);"/>
    </g>
</svg>
